<?xml version="1.0" encoding="utf-8"?>
<!-- Generator: Adobe Illustrator 25.4.1, SVG Export Plug-In . SVG Version: 6.00 Build 0)  -->
<svg version="1.1" id="Layer_1" xmlns="http://www.w3.org/2000/svg" xmlns:xlink="http://www.w3.org/1999/xlink" x="0px" y="0px"
	 viewBox="0 0 314.4 102.5" style="enable-background:new 0 0 314.4 102.5;" xml:space="preserve">
<style type="text/css">
	.st0{fill:#FFFFFF;}
</style>
<g transform="translate(0 27.624)">
	<g>
		<g transform="translate(0 -27.624)">
			<g transform="translate(-0.001 1.028)">
				<path class="st0" d="M33.3,0.8L0.2,62.3C0.1,62.5,0,62.8,0,63v12.1c0,0.9,0.7,1.5,1.5,1.5c0,0,0,0,0,0h45c0.9,0,1.5,0.7,1.5,1.5
					c0,0,0,0,0,0V99c0,0.9,0.7,1.5,1.5,1.5c0,0,0,0,0,0h14.7c0.9,0,1.5-0.7,1.5-1.5c0,0,0,0,0,0V78.2c0-0.9,0.7-1.5,1.5-1.5
					c0,0,0,0,0,0h11.4c0.8,0,1.5-0.7,1.5-1.5c0,0,0,0,0,0V61.8c0-0.8-0.7-1.5-1.5-1.5c0,0,0,0,0,0H67.6c-0.8,0-1.5-0.7-1.5-1.5
					L66,50.2c0-0.8-0.7-1.5-1.5-1.5H49.7c-0.9,0-1.5,0.7-1.5,1.5c0,0,0,0,0,0v8.4c0,0.8-0.7,1.5-1.5,1.5c0,0,0,0,0,0H22.8
					c-0.9,0-1.5-0.7-1.5-1.5c0-0.3,0.1-0.5,0.2-0.7L44,15.6c0.3-0.5,0.8-0.8,1.4-0.8h19.7c0.9,0,1.5-0.7,1.5-1.5V1.5
					c0-0.9-0.7-1.5-1.5-1.5c0,0,0,0,0,0H34.7C34.1,0,33.6,0.3,33.3,0.8"/>
			</g>
			<g transform="translate(70.348 0)">
				<path class="st0" d="M59.2,37.9c-0.2,0.3-0.2,0.6-0.2,0.9c0.4,3.6-1.4,7.6-1.4,12c0,24.8-6.3,36.1-19.3,36.1
					C25.3,86.9,19,75.6,19,50.8s6.3-36,19.4-36c4.3-0.2,8.5,1.5,11.5,4.6c0.5,0.6,1.4,0.6,2,0c0.1-0.1,0.2-0.2,0.2-0.3l6.8-9.8
					c0.4-0.7,0.2-1.5-0.5-1.9C52.9,3.9,46.2,0,38.4,0C13.6,0,0,18.1,0,50.8s13.6,50.9,38.4,50.9c24.6,0,37-18.7,37-51.4
					c0-12.8-0.9-22.8-4.9-30.9c-0.3-0.7-1.2-1-1.9-0.7c-0.2,0.1-0.5,0.3-0.6,0.6L59.2,37.9z"/>
			</g>
			<g transform="translate(127.971 0.899)">
				<path class="st0" d="M15.3,62.6c0.2-0.3,0.2-0.6,0.2-0.9c-0.4-3.6,2.3-6.4,2.3-10.8c0-24.8,7.5-36.1,20.4-36.1
					c13.1,0,19.4,11.3,19.4,36.1s-6.3,36-19.4,36c-4.3,0.2-8.5-1.5-11.5-4.6c-0.5-0.6-1.4-0.6-2,0c-0.1,0.1-0.2,0.2-0.2,0.3
					l-6.8,11.8c-0.4,0.7-0.2,1.5,0.5,1.9c5.5,3.5,12.2,5.4,20,5.4c24.7,0,38.4-18.1,38.4-50.8S62.9,0,38.2,0C13.6,0,0,18.2,0,50.9
					c0,12.8,2.1,23.3,6.1,31.4C6.4,83,7.3,83.3,8,83c0.3-0.1,0.5-0.3,0.6-0.6L15.3,62.6z"/>
			</g>
			<g transform="translate(180.707 35.662)">
				<path class="st0" d="M75.6,40.4c4.4,7,7.3,11.3,8.8,12.9c6.2,7,13.2,11.1,21.1,12.2c11.8-0.2,20.7-2.9,26.9-8
					c3.1-3.4-0.5-4.9-2.3-4.7c-4.8,1-9.8,1.7-14.7,2.1c-7.5,0.2-13.9-2.6-19.3-8.7c-2-2.3-5.6-7.8-10.8-16.8
					c-3.4-6.2-6.7-9.3-9.8-9.3c-2.3,0.1-4.4,1.2-5.9,2.9c-0.8,1.1-1.8,2.1-2.6,3.1c0.1-1.3,0.2-2.6,0.2-3.9
					c0.1-5.1-1.1-10.2-3.4-14.7c-2.4-4.9-5.8-6.5-10-7.2C45.2-1,42,1.6,34.9,7c-5,3.8-9.8,9-14.5,13.1l0.2-1.7c0-0.5-2.5,6-1.7,1.3
					c0.8-4.9-0.2-1.9-0.2-2.4c-0.2-3.1,0.6,0-3.3,0.1C11.9,18.8,9.6,0.7,8.8,6.1C8,12.1,7,18.3,6.2,24.4C2,42.2-0.2,52,0,53.4
					c0,1,0.7,2.6,2,4.7c1.6,2.6,0.4,3.5,2.2,3.4c1.3,0.2,9.6-8.6,10.1-8.5c4.9-7.8,7.7-13.7,10.5-17.9c10.8-16,18.1-22,25.1-21
					c1.3,0.2,3.9,1.5,3,7.1c-0.1,0.5-0.7,5.4-2.1,14.7c-1.3,9.3-2,14.2-2,14.7c0.2,2.1,1.5,4.1,4.1,6s4.9,2.9,6.7,2.9
					c1-0.2,3.3-2.6,6.9-7.3c0.2-0.2,2.6-3.9,7.7-10.9C74.8,40.5,75.3,40.2,75.6,40.4"/>
			</g>
			<g transform="translate(70.347 0)">
				<path class="st0" d="M16.2,63.8c0.2-0.3,0.2-0.6,0.2-0.9c-0.4-3.6,1.4-7.6,1.4-12c0-24.8,6.3-36.1,19.3-36.1
					c13.1,0,19.4,11.3,19.4,36.1s-6.3,36-19.4,36c-4.3,0.2-8.5-1.5-11.5-4.6c-0.5-0.6-1.4-0.6-2,0c-0.1,0.1-0.2,0.2-0.2,0.3
					l-6.8,7.7c-0.4,0.7-0.2,1.5,0.5,1.9c5.5,3.5,12.2,9.4,20,9.4c24.7,0,38.4-18.1,38.4-50.8S61.7,0,37,0C12.5,0,0,18.7,0,51.4
					c0,12.8,5,22.8,9,30.9c0.3,0.7,1.2,1,1.9,0.7c0.2-0.1,0.5-0.3,0.6-0.6L16.2,63.8z"/>
			</g>
		</g>
	</g>
</g>
</svg>
