<?xml version="1.0" encoding="utf-8"?>
<!-- Generator: Adobe Illustrator 25.4.1, SVG Export Plug-In . SVG Version: 6.00 Build 0)  -->
<svg version="1.1" id="Layer_1" xmlns="http://www.w3.org/2000/svg" xmlns:xlink="http://www.w3.org/1999/xlink" x="0px" y="0px"
	 viewBox="0 0 414 102.5" style="enable-background:new 0 0 414 102.5;" xml:space="preserve">
<style type="text/css">
	.st0{fill:#FFFFFF;}
</style>
<path class="st0" d="M298.5,57.6l-2.8,9.8l-4-9.6h-1.1l-3.9,9.6l-2.9-9.8h-3.4l4.6,14.7h2.8l3.2-8.3l3.3,8.3h2.8l4.5-14.7H298.5z
	 M310.4,72.7c4.2,0.1,7.7-3.1,7.8-7.3c0-0.1,0-0.2,0-0.4c0.1-4.2-3.3-7.6-7.4-7.7c-0.1,0-0.2,0-0.4,0c-4.2-0.1-7.7,3.1-7.9,7.3
	c0,0.1,0,0.2,0,0.4c-0.1,4.2,3.3,7.6,7.5,7.7C310.2,72.7,310.3,72.7,310.4,72.7 M310.4,69.7c-2.5,0-4.6-2-4.6-4.5c0-0.1,0-0.1,0-0.2
	c0-2.5,2-4.6,4.5-4.7c2.5,0,4.6,2,4.7,4.5c0,0,0,0.1,0,0.1c0.1,2.5-1.9,4.6-4.4,4.7C310.6,69.7,310.5,69.7,310.4,69.7 M328.9,72.4
	h3.5l-3.2-5.6c1.7-0.8,2.7-2.5,2.7-4.3c0-2.7-2.1-4.9-4.8-4.9c-0.1,0-0.2,0-0.3,0h-5.9v14.7h3.2v-5h2.1L328.9,72.4z M323.9,60.6h2.6
	c1.1-0.1,2,0.6,2.1,1.7c0.1,1.1-0.6,2-1.7,2.1c-0.1,0-0.3,0-0.4,0h-2.6V60.6z M337.8,69.4V57.6h-3.2v14.7h8.8v-3H337.8z M351.2,57.6
	h-5.6v14.7h5.6c4,0.2,7.3-2.9,7.5-6.9c0-0.2,0-0.3,0-0.5c0.1-4-3-7.2-7-7.4C351.6,57.6,351.4,57.6,351.2,57.6 M351.1,69.4h-2.3v-8.8
	h2.3c2.3-0.1,4.2,1.7,4.3,4c0,0.1,0,0.3,0,0.4c0.1,2.3-1.6,4.3-3.9,4.4C351.4,69.4,351.3,69.4,351.1,69.4 M377.4,57.6l-2.8,9.8
	l-4-9.6h-1.1l-3.9,9.6l-2.9-9.8h-3.4l4.6,14.7h2.8l3.2-8.3l3.3,8.3h2.8l4.5-14.7H377.4z M382.8,72.4h3.2V57.6h-3.2V72.4z
	 M394.9,57.6h-5.6v14.7h5.6c4,0.2,7.3-2.9,7.5-6.9c0-0.2,0-0.3,0-0.5c0.1-4-3-7.2-7-7.4C395.2,57.6,395.1,57.6,394.9,57.6
	 M394.8,69.4h-2.3v-8.8h2.3c2.3-0.1,4.2,1.7,4.3,4c0,0.1,0,0.3,0,0.4c0.1,2.3-1.6,4.3-3.9,4.4C395.1,69.4,394.9,69.4,394.8,69.4
	 M408.1,69.4v-3h5.1v-2.9h-5.1v-2.9h5.7v-2.9h-8.8v14.7h9.1v-3L408.1,69.4z"/>
<path class="st0" d="M288.9,47.4c4.2,0.1,7.7-3.1,7.8-7.3c0-0.1,0-0.3,0-0.4c0.1-4.2-3.3-7.6-7.4-7.7c-0.1,0-0.3,0-0.4,0
	c-4.2-0.1-7.7,3.1-7.9,7.3c0,0.1,0,0.2,0,0.3c0,4.2,3.3,7.6,7.5,7.7C288.7,47.4,288.8,47.4,288.9,47.4 M288.9,44.4
	c-2.5,0-4.6-2-4.6-4.5c0-0.1,0-0.1,0-0.2c-0.1-2.5,1.9-4.6,4.5-4.7c0.1,0,0.1,0,0.2,0c2.5,0,4.6,2,4.6,4.5c0,0.1,0,0.1,0,0.2
	c0.1,2.5-1.9,4.6-4.4,4.7C289,44.4,289,44.4,288.9,44.4 M307.3,47.1h3.5l-3.3-5.6c1.7-0.8,2.7-2.5,2.7-4.3c0-2.7-2.1-4.9-4.8-4.9
	c-0.1,0-0.2,0-0.3,0h-5.9v14.7h3.2v-5h2L307.3,47.1z M302.4,35.3h2.6c1-0.1,2,0.6,2.1,1.7c0,0.1,0,0.2,0,0.2c0,1.1-0.8,1.9-1.9,1.9
	c-0.1,0-0.2,0-0.2,0h-2.6V35.3z M318.8,32.4h-5.7v14.7h3.2v-4.6h2.5c2.8,0.1,5.1-2,5.2-4.8c0-0.1,0-0.2,0-0.2c0-2.8-2.2-5-4.9-5.1
	C319,32.4,318.9,32.4,318.8,32.4L318.8,32.4z M318.7,39.5h-2.4v-4.2h2.4c1.1-0.1,2.1,0.8,2.1,1.9c0,0.1,0,0.1,0,0.2
	c0.1,1.1-0.8,2.1-1.9,2.1C318.8,39.6,318.7,39.6,318.7,39.5 M335,32.4v5.7h-5.6v-5.7h-3.2v14.7h3.2V41h5.6v6.1h3.2V32.4H335z
	 M351.3,47.1h3.5l-6-14.7h-3L340,47.1h3.4l1-2.8h5.9L351.3,47.1z M347.3,36.3l1.9,5.3h-3.9L347.3,36.3z M366,32.4v9l-6.5-9h-2.9
	v14.7h3.1v-9.2l6.7,9.2h2.7V32.4H366z M377.4,47.4c3,0,5.6-1.5,5.6-4.7c0-3.3-2.8-4-5.1-4.6c-1.6-0.4-2.8-0.7-2.8-1.7
	c0-1,1.1-1.4,2.1-1.4c1.2,0,2.2,0.6,2.2,1.9h3.1c0-2.9-1.9-4.7-5.3-4.7c-3.3,0-5.3,1.6-5.3,4.4c0,3.2,2.7,3.8,4.9,4.4
	c1.6,0.4,2.9,0.7,2.9,1.8c0,1.1-1.2,1.7-2.4,1.7c-1.2,0.2-2.3-0.7-2.5-1.9c0-0.1,0-0.2,0-0.2h-3.2C371.6,45.5,374,47.4,377.4,47.4"
	/>
<path class="st0" d="M291.3,16.5h-1.2v-3.3h-2.3l-0.5,3.3h-2.9l3.7-8.7h-3l-4.6,10.8v0.5h6.7v2.7h2.8v-2.7h1.2V16.5z M298.6,22.1
	c3.5,0,5.7-2.8,5.7-7.3c0-4.5-2.2-7.3-5.7-7.3s-5.7,2.8-5.7,7.3C292.9,19.3,295.1,22.1,298.6,22.1 M298.6,19.3
	c-1.7,0-2.6-1.6-2.6-4.5s0.9-4.5,2.6-4.5c1.7,0,2.6,1.6,2.6,4.5S300.3,19.3,298.6,19.3 M312,22.1c3.5,0,5.7-2.8,5.7-7.3
	c0-4.5-2.2-7.3-5.7-7.3c-3.5,0-5.7,2.8-5.7,7.3C306.3,19.3,308.5,22.1,312,22.1 M311.9,19.3c-1.7,0-2.6-1.6-2.6-4.5s0.9-4.5,2.7-4.5
	c1.7,0,2.6,1.6,2.6,4.5S313.7,19.3,311.9,19.3 M338.4,21.9l-2.3-14.7h-3.2l-4,9l-4-9h-3.2l-2.3,14.7h3.2l1.5-9.6l4.4,9.6h0.8
	l4.4-9.6l1.5,9.6H338.4z"/>
<path class="st0" d="M33.3,1.8L0.2,63.3C0.1,63.6,0,63.8,0,64.1v12.1c0,0.9,0.7,1.5,1.5,1.5c0,0,0,0,0,0h45c0.9,0,1.5,0.7,1.5,1.5
	c0,0,0,0,0,0V100c0,0.9,0.7,1.5,1.5,1.5c0,0,0,0,0,0h14.7c0.9,0,1.5-0.7,1.5-1.5c0,0,0,0,0,0V79.3c0-0.9,0.7-1.5,1.5-1.5
	c0,0,0,0,0,0h11.4c0.8,0,1.5-0.7,1.5-1.5c0,0,0,0,0,0V62.8c0-0.8-0.7-1.5-1.5-1.5c0,0,0,0,0,0H67.6c-0.8,0-1.5-0.7-1.5-1.5l-0.1-8.4
	c0-0.8-0.7-1.5-1.5-1.5H49.7c-0.9,0-1.5,0.7-1.5,1.5c0,0,0,0,0,0v8.4c0,0.8-0.7,1.5-1.5,1.5c0,0,0,0,0,0H22.8
	c-0.9,0-1.5-0.7-1.5-1.5c0-0.3,0.1-0.5,0.2-0.7L44,16.7c0.3-0.5,0.8-0.8,1.4-0.8h19.8c0.9,0,1.5-0.7,1.5-1.5V2.6
	c0-0.9-0.7-1.5-1.5-1.5c0,0,0,0,0,0H34.7C34.1,1,33.6,1.3,33.3,1.8"/>
<path class="st0" d="M129.5,37.9c-0.2,0.3-0.2,0.6-0.2,0.9c0.4,3.6-1.4,7.6-1.4,12c0,24.8-6.3,36.1-19.3,36.1
	c-13.1,0-19.4-11.3-19.4-36.1s6.3-36,19.4-36c4.3-0.2,8.5,1.5,11.5,4.6c0.5,0.6,1.4,0.6,2,0c0.1-0.1,0.2-0.2,0.2-0.3l6.8-9.8
	c0.4-0.7,0.2-1.5-0.5-1.9c-5.5-3.5-12.2-7.4-20-7.4C84,0,70.3,18.1,70.3,50.8s13.6,50.9,38.4,50.9c24.6,0,37-18.7,37-51.4
	c0-12.8-0.9-22.8-4.9-30.9c-0.3-0.7-1.2-1-1.9-0.7c-0.2,0.1-0.5,0.3-0.6,0.6L129.5,37.9z"/>
<path class="st0" d="M143.3,63.5c0.2-0.3,0.2-0.6,0.2-0.9c-0.4-3.6,2.3-6.4,2.3-10.8c0-24.8,7.5-36.1,20.4-36.1
	c13.1,0,19.4,11.3,19.4,36.1s-6.3,36-19.4,36c-4.3,0.2-8.5-1.5-11.5-4.6c-0.5-0.6-1.4-0.6-2,0c-0.1,0.1-0.2,0.2-0.2,0.3l-6.8,11.8
	c-0.4,0.7-0.2,1.5,0.5,1.9c5.5,3.5,12.2,5.4,20,5.4c24.7,0,38.4-18.1,38.4-50.8S190.9,0.9,166.2,0.9c-24.6,0-38.2,18.2-38.2,50.9
	c0,12.8,2.1,23.3,6.1,31.4c0.3,0.7,1.2,1,1.9,0.7c0.3-0.1,0.5-0.3,0.6-0.6L143.3,63.5z"/>
<path class="st0" d="M256.3,76c4.4,7,7.3,11.3,8.8,12.9c6.2,7,13.2,11.1,21.1,12.2c11.8-0.2,20.7-2.9,26.9-8
	c3.1-3.4-0.5-4.9-2.3-4.7c-4.8,1-9.8,1.7-14.7,2.1c-7.5,0.2-13.9-2.6-19.3-8.7c-2-2.3-5.6-7.8-10.8-16.8c-3.4-6.2-6.7-9.3-9.8-9.3
	c-2.3,0.1-4.4,1.2-5.9,2.9c-0.8,1.1-1.8,2.1-2.6,3.1c0.1-1.3,0.2-2.6,0.2-3.9c0.1-5.1-1.1-10.2-3.4-14.7c-2.4-4.9-5.8-6.5-10-7.2
	c-8.7-1.3-11.9,1.3-19,6.6c-5,3.8-9.8,9-14.5,13.1l0.2-1.7c0-0.5-2.5,6-1.7,1.3c0.8-4.9-0.2-1.9-0.2-2.4c-0.2-3.1,0.6,0-3.3,0.1
	c-3.4,1.5-5.7-16.7-6.6-11.3c-0.8,6-1.8,12.2-2.6,18.3c-4.3,17.8-6.4,27.6-6.2,29.1c0,1,0.7,2.6,2,4.7c1.6,2.6,0.4,3.5,2.2,3.4
	c1.3,0.2,9.6-8.6,10.1-8.5c4.9-7.8,7.7-13.7,10.5-17.9c10.8-16,18.2-22,25.1-21c1.3,0.2,3.9,1.5,3,7.1c-0.1,0.5-0.7,5.4-2.1,14.7
	c-1.3,9.3-2,14.2-2,14.7c0.2,2.1,1.5,4.1,4.1,6s4.9,2.9,6.7,2.9c1-0.2,3.3-2.6,6.9-7.3c0.2-0.2,2.6-3.9,7.7-10.9
	C255.5,76.2,256,75.9,256.3,76"/>
<path class="st0" d="M86.6,63.8c0.2-0.3,0.2-0.6,0.2-0.9c-0.4-3.6,1.4-7.6,1.4-12c0-24.8,6.3-36.1,19.3-36.1
	c13.1,0,19.4,11.3,19.4,36.1s-6.3,36-19.4,36c-4.3,0.2-8.5-1.5-11.5-4.6c-0.5-0.6-1.4-0.6-2,0c-0.1,0.1-0.2,0.2-0.2,0.3l-6.8,7.7
	c-0.4,0.7-0.2,1.5,0.5,1.9c5.5,3.5,12.2,9.4,20,9.4c24.7,0,38.4-18.1,38.4-50.8S132.1,0,107.4,0c-24.6,0-37,18.7-37,51.4
	c0,12.8,5,22.8,9,30.9c0.3,0.7,1.2,1,1.9,0.7c0.2-0.1,0.5-0.3,0.6-0.6L86.6,63.8z"/>
</svg>
