<svg xmlns="http://www.w3.org/2000/svg" xmlns:xlink="http://www.w3.org/1999/xlink" width="413.991" height="102.549" viewBox="0 0 413.991 102.549"><defs><clipPath id="a"><path d="M0,74.925H413.991V-27.624H0Z" transform="translate(0 27.624)" fill="none"/></clipPath></defs><g transform="translate(0 27.624)"><g transform="translate(0 -27.624)" clip-path="url(#a)"><g transform="translate(280.484 57.301)"><path d="M13.158.236l-2.825,9.782L6.36.384H5.284L1.419,10.022-1.473.236H-4.851L-.207,14.963H2.626L5.818,6.707l3.289,8.256H11.94L16.484.236ZM25.1,15.286A7.57,7.57,0,0,0,32.922,7.6,7.571,7.571,0,0,0,25.1-.087,7.6,7.6,0,0,0,17.237,7.6,7.6,7.6,0,0,0,25.1,15.286m0-3.007A4.573,4.573,0,0,1,20.463,7.6a4.617,4.617,0,1,1,9.233,0,4.53,4.53,0,0,1-4.6,4.678m18.439,2.684h3.549L43.836,9.391a4.663,4.663,0,0,0,2.673-4.284A4.853,4.853,0,0,0,41.367.236H35.424V14.963H38.6V9.933h2.053ZM38.6,3.18h2.558a1.919,1.919,0,1,1,0,3.813H38.6ZM52.508,12V.236H49.33V14.966h8.828V12ZM65.884.232H60.315V14.966h5.568A7.194,7.194,0,0,0,73.36,7.583,7.167,7.167,0,0,0,65.884.232M65.8,12H63.489V3.195H65.8a4.148,4.148,0,0,1,4.3,4.388A4.185,4.185,0,0,1,65.8,12M92.108.236l-2.825,9.782L85.31.384H84.237l-3.868,9.637L77.481.236H74.1l4.644,14.727h2.836l3.193-8.256,3.289,8.256h2.832L95.434.236Zm5.327,14.727h3.174V.236H97.435ZM109.567.232H104V14.966h5.565a7.194,7.194,0,0,0,7.477-7.384,7.165,7.165,0,0,0-7.477-7.35M109.485,12h-2.309V3.195h2.309a4.148,4.148,0,0,1,4.3,4.388,4.185,4.185,0,0,1-4.3,4.421m13.283,0V8.967h5.108V6.087h-5.108V3.18h5.658V.236h-8.832V14.963h9.062V12Z" transform="translate(4.851 0.087)" fill="#fff"/></g><g transform="translate(281.047 32.052)"><path d="M5.742,11.229a7.568,7.568,0,0,0,7.826-7.685A7.568,7.568,0,0,0,5.742-4.14,7.6,7.6,0,0,0-2.117,3.545a7.6,7.6,0,0,0,7.859,7.685m0-3A4.576,4.576,0,0,1,1.109,3.545,4.574,4.574,0,0,1,5.742-1.137a4.535,4.535,0,0,1,4.6,4.681,4.535,4.535,0,0,1-4.6,4.681m18.439,2.68H27.73L24.478,5.338A4.666,4.666,0,0,0,27.155,1.05a4.854,4.854,0,0,0-5.145-4.871H16.066V10.906h3.178V5.88h2.049ZM19.244-.877H21.8a1.911,1.911,0,0,1,2.135,1.9A1.91,1.91,0,0,1,21.8,2.936H19.244Zm16.4-2.94H29.976V10.906H33.15V6.3h2.491a5,5,0,0,0,5.19-5.056A5,5,0,0,0,35.641-3.817ZM35.5,3.355H33.15V-.873H35.5a2.025,2.025,0,0,1,2.116,2.116A2.022,2.022,0,0,1,35.5,3.355M51.8-3.821V1.863H46.24V-3.821H43.066V10.906H46.24V4.825H51.8v6.081h3.174V-3.821ZM68.135,10.906h3.46L65.633-3.821H62.626L56.85,10.906h3.382l1.013-2.8h5.862ZM64.159.07,66.1,5.334H62.236ZM82.817-3.821V5.163L76.35-3.821H73.473V10.906H76.6V1.7l6.675,9.2h2.665V-3.821ZM94.188,11.2c3.048,0,5.583-1.541,5.583-4.715,0-3.3-2.821-4-5.067-4.574-1.559-.371-2.844-.687-2.844-1.723,0-.965,1.051-1.4,2.086-1.4,1.2,0,2.25.594,2.25,1.864H99.33c0-2.936-1.916-4.744-5.3-4.744C90.758-4.1,88.687-2.5,88.687.322c0,3.178,2.684,3.824,4.911,4.369,1.6.375,2.936.687,2.936,1.83,0,1.1-1.169,1.734-2.368,1.734A2.191,2.191,0,0,1,91.69,6.143H88.475c0,3.163,2.331,5.056,5.713,5.056" transform="translate(2.117 4.14)" fill="#fff"/></g><g transform="translate(280.584 7.12)"><path d="M7.847,6.889H6.64V3.556H4.379L3.9,6.889H.964L4.68-1.8H1.714L-2.893,8.976v.542H3.823v2.673H6.64V9.518H7.847Zm7.287,5.55c3.478,0,5.669-2.792,5.669-7.258,0-4.488-2.168-7.254-5.669-7.254S9.462.693,9.462,5.182c0,4.466,2.19,7.258,5.672,7.258m0-2.8c-1.715,0-2.643-1.581-2.643-4.462S13.423.723,15.134.723c1.689,0,2.639,1.6,2.639,4.473s-.932,4.447-2.639,4.447m13.342,2.8c3.478,0,5.665-2.792,5.665-7.258,0-4.488-2.168-7.254-5.665-7.254S22.8.693,22.8,5.182c0,4.466,2.187,7.258,5.672,7.258m0-2.8c-1.715,0-2.647-1.581-2.647-4.462S26.765.723,28.476.723c1.689,0,2.639,1.6,2.639,4.473s-.936,4.447-2.639,4.447m26.413,2.547L52.61-2.54h-3.2l-4,9.032L41.428-2.54H38.24L35.934,12.191h3.245L40.63,2.579l4.392,9.582h.783l4.388-9.582,1.452,9.611Z" transform="translate(2.893 2.54)" fill="#fff"/></g><g transform="translate(-0.001 1.028)"><path d="M24.346.591-8.79,62.09a1.515,1.515,0,0,0-.186.728V74.942a1.543,1.543,0,0,0,1.548,1.541H37.6a1.541,1.541,0,0,1,1.544,1.544V98.738a1.543,1.543,0,0,0,1.548,1.541H55.414a1.543,1.543,0,0,0,1.548-1.541V78.027a1.543,1.543,0,0,1,1.544-1.544H69.926a1.539,1.539,0,0,0,1.541-1.541V61.533a1.539,1.539,0,0,0-1.541-1.541H58.644A1.546,1.546,0,0,1,57.1,58.459l-.126-8.446a1.54,1.54,0,0,0-1.544-1.529H40.695a1.543,1.543,0,0,0-1.548,1.541v8.427A1.538,1.538,0,0,1,37.6,59.992H13.851a1.542,1.542,0,0,1-1.366-2.265L35,15.411a1.537,1.537,0,0,1,1.362-.817h19.75a1.546,1.546,0,0,0,1.548-1.541V1.323A1.543,1.543,0,0,0,56.112-.218h-30.4a1.549,1.549,0,0,0-1.362.809" transform="translate(8.976 0.218)" fill="#ff2d5d"/></g><g transform="translate(70.348 0)"><path d="M43.218,27.687a1.392,1.392,0,0,0-.178.858c.4,3.568-1.37,7.581-1.37,12,0,24.8-6.322,36.128-19.252,36.128-13.071,0-19.389-11.326-19.389-36.128S9.347,4.563,22.418,4.563a15.177,15.177,0,0,1,11.471,4.57,1.406,1.406,0,0,0,2.227-.278L42.929-.912a1.414,1.414,0,0,0-.471-1.9c-5.517-3.545-12.221-7.395-20.039-7.395-24.706,0-38.352,18.068-38.352,50.755s13.647,50.9,38.352,50.9c24.564,0,37.012-18.71,37.012-51.4,0-12.774-.891-22.8-4.893-30.9a1.421,1.421,0,0,0-2.5-.1Z" transform="translate(15.934 10.208)" fill="#ff2d5d"/></g><g transform="translate(127.971 0.899)"><path d="M11.2,45.722a1.392,1.392,0,0,0,.178-.858c-.4-3.568,2.291-6.4,2.291-10.825,0-24.8,7.484-36.128,20.41-36.128,13.075,0,19.393,11.33,19.393,36.128S47.153,70.026,34.078,70.026a15.172,15.172,0,0,1-11.467-4.574,1.407,1.407,0,0,0-2.227.278L13.571,77.51a1.418,1.418,0,0,0,.468,1.9c5.517,3.545,12.225,5.379,20.039,5.379,24.709,0,38.356-18.064,38.356-50.755s-13.647-50.9-38.356-50.9c-24.564,0-38.207,18.209-38.207,50.9,0,12.778,2.086,23.306,6.1,31.406a1.413,1.413,0,0,0,2.495.093Z" transform="translate(4.129 16.857)" fill="#ff2d5d"/></g><g transform="translate(180.707 35.662)"><path d="M55.249,29.487c4.41,7.024,7.35,11.267,8.817,12.9q9.311,10.536,21.067,12.247c11.757-.163,20.741-2.94,26.944-8,3.081-3.441-.49-4.9-2.283-4.737a112.758,112.758,0,0,1-14.7,2.123c-7.514.163-13.884-2.613-19.271-8.653-1.96-2.287-5.554-7.84-10.781-16.821q-5.145-9.311-9.8-9.311a7.911,7.911,0,0,0-5.88,2.94c-.817,1.143-1.8,2.123-2.61,3.1a29.618,29.618,0,0,0,.16-3.92,31.4,31.4,0,0,0-3.43-14.7c-2.446-4.9-5.8-6.541-9.96-7.183-8.705-1.348-11.894,1.258-19,6.612C9.535-.145,4.75,5.067.013,9.151l.2-1.711c0-.486-2.536,6.036-1.719,1.3.813-4.9-.215-1.93-.215-2.42-.163-3.1.646-.022-3.274.141-3.43,1.47-5.736-16.657-6.552-11.271-.817,6.044-1.8,12.247-2.61,18.291-4.251,17.8-6.374,27.6-6.207,29.068,0,.98.653,2.613,1.956,4.737,1.633,2.613.371,3.538,2.168,3.378,1.307.16,9.619-8.635,10.1-8.472,4.9-7.837,7.655-13.673,10.536-17.938,10.818-16.015,18.15-21.992,25.125-21,1.3.186,3.917,1.481,3.018,7.12-.074.486-.653,5.39-2.123,14.7q-1.96,13.966-1.96,14.7c.167,2.123,1.474,4.084,4.084,6.044s4.9,2.94,6.7,2.94q1.47-.245,6.86-7.35c.16-.163,2.61-3.917,7.673-10.94q.98-1.225,1.47-.98" transform="translate(20.369 10.871)" fill="#ff2d5d"/></g><g transform="translate(70.347 0)"><path d="M11.845,46.582a1.392,1.392,0,0,0,.178-.858c-.4-3.568,1.37-7.581,1.37-12,0-24.8,6.322-36.128,19.252-36.128,13.071,0,19.389,11.326,19.389,36.128S45.716,69.706,32.645,69.706a15.177,15.177,0,0,1-11.471-4.57,1.406,1.406,0,0,0-2.227.278l-6.812,7.722a1.419,1.419,0,0,0,.471,1.9c5.517,3.545,12.221,9.44,20.039,9.44C57.35,84.477,71,66.409,71,33.722s-13.647-50.9-38.352-50.9c-24.564,0-37.012,18.71-37.012,51.4,0,12.774,5.015,22.8,9.021,30.9a1.421,1.421,0,0,0,2.5.1Z" transform="translate(4.367 17.174)" fill="#ff2d5d"/></g></g></g></svg>