<svg width="164" height="55" viewBox="0 0 164 55" fill="none" xmlns="http://www.w3.org/2000/svg">
<path d="M20.1298 0.731201H21.5833C26.6293 0.840896 31.593 2.87025 35.158 6.46276C33.8417 7.80653 32.4979 9.09544 31.209 10.4392C29.2071 8.62924 26.7938 7.23063 24.1611 6.737C20.2669 5.91429 16.0711 6.65473 12.8077 8.87605C9.2426 11.2071 6.82931 15.1561 6.30826 19.3794C5.73236 23.5478 6.91158 27.9356 9.62653 31.1716C12.2318 34.3253 16.2082 36.2998 20.3218 36.4369C24.1611 36.6563 28.165 35.4771 30.9622 32.7896C33.1561 30.8973 34.1708 28.0178 34.4999 25.2206C29.9475 25.2206 25.3952 25.248 20.8428 25.2206V19.5713H40.012C40.9993 25.632 39.5733 32.4605 34.9661 36.7934C31.8946 39.8649 27.6439 41.6749 23.311 42.0314C19.1151 42.4427 14.7822 41.6474 11.0526 39.6181C6.5825 37.2322 3.01741 33.2009 1.26229 28.4566C-0.383134 24.0962 -0.410558 19.16 1.12517 14.7722C2.52378 10.7683 5.21131 7.23063 8.6667 4.76249C11.985 2.32178 16.0163 0.978015 20.1298 0.731201Z" fill="white"/>
<path d="M130.099 2.15723H135.968V41.3183C134.021 41.3183 132.046 41.3458 130.099 41.2909C130.127 28.2646 130.099 15.2109 130.099 2.15723Z" fill="white"/>
<path d="M53.0657 15.732C56.6856 15.0464 60.6072 15.8143 63.5964 17.9808C66.3114 19.9004 68.2036 22.9171 68.7795 26.2079C69.52 30.0198 68.5875 34.1882 66.1194 37.2048C63.4593 40.5779 59.0989 42.3879 54.8482 42.1137C50.9541 41.8943 47.1696 39.9472 44.866 36.766C42.2607 33.2558 41.63 28.4292 43.056 24.3157C44.4821 19.9004 48.5134 16.5273 53.0657 15.732ZM53.8884 20.9425C52.4075 21.3265 51.0363 22.1766 50.0491 23.3833C47.389 26.5644 47.5535 31.7475 50.4879 34.7093C52.1607 36.4095 54.6837 37.2048 57.0147 36.7386C59.1812 36.3547 61.0734 34.9012 62.1155 32.9816C63.9255 29.7181 63.4045 25.2207 60.6347 22.6702C58.8521 21.0248 56.2469 20.3392 53.8884 20.9425Z" fill="white"/>
<path d="M82.135 15.7321C86.276 14.9368 90.8009 16.0886 93.8998 18.9955C98.9457 23.5204 99.4942 31.9944 95.1887 37.2049C92.5834 40.4957 88.3602 42.3057 84.1917 42.1137C80.2153 42.004 76.2937 40.0295 73.9353 36.7661C71.2752 33.1736 70.6993 28.2373 72.2076 24.0415C73.7159 19.7634 77.6649 16.5 82.135 15.7321ZM82.9577 20.9426C81.4768 21.3265 80.1056 22.1767 79.1184 23.3559C76.4857 26.4822 76.5954 31.583 79.42 34.5722C81.0929 36.3548 83.6981 37.2323 86.1114 36.7387C88.2505 36.3273 90.1701 34.9013 91.2122 32.9816C92.9948 29.6908 92.4737 25.1933 89.6765 22.6429C87.894 20.9975 85.2887 20.3393 82.9577 20.9426Z" fill="white"/>
<path d="M106.789 17.3226C109.942 15.348 114.138 14.7996 117.539 16.4998C118.608 16.966 119.486 17.7613 120.336 18.5566C120.363 17.8162 120.336 17.0483 120.363 16.2805C122.201 16.3079 124.038 16.2805 125.903 16.3079V40.4956C125.876 44.143 124.943 48.0097 122.31 50.6698C119.431 53.6042 115.016 54.5092 111.039 53.9058C106.789 53.2751 103.086 50.1762 101.441 46.2546C103.086 45.4593 104.814 44.8286 106.514 44.0881C107.474 46.3369 109.421 48.2565 111.862 48.6953C114.303 49.1341 117.127 48.5308 118.718 46.5014C120.418 44.4172 120.418 41.5652 120.336 39.0147C119.074 40.2488 117.621 41.3458 115.866 41.7571C112.054 42.8266 107.858 41.5103 104.924 38.9325C101.962 36.3546 100.207 32.3782 100.371 28.4292C100.454 23.9591 102.977 19.6536 106.789 17.3226ZM112.465 20.8328C110.792 21.107 109.229 22.0394 108.16 23.3284C105.582 26.3998 105.582 31.3087 108.187 34.3253C109.668 36.1078 112.054 37.0951 114.358 36.8483C116.524 36.6289 118.526 35.2577 119.596 33.3654C121.405 30.1569 121.104 25.7965 118.663 22.9993C117.155 21.2716 114.742 20.4214 112.465 20.8328Z" fill="white"/>
<path d="M143.016 18.7212C146.307 15.6497 151.38 14.6076 155.603 16.2256C159.607 17.7339 162.157 21.5458 163.446 25.4674C157.495 27.9356 151.572 30.3763 145.621 32.8444C146.444 34.4076 147.705 35.8336 149.405 36.4095C151.791 37.2596 154.643 36.958 156.645 35.3674C157.441 34.7641 158.071 33.9688 158.675 33.2009C160.183 34.2156 161.691 35.2029 163.2 36.2175C161.06 39.4261 157.468 41.6749 153.601 42.0314C149.323 42.5524 144.771 40.907 142.001 37.5613C137.449 32.296 137.887 23.4655 143.016 18.7212ZM145.95 23.7946C145.018 25.1384 144.634 26.7838 144.661 28.4018C148.638 26.7564 152.614 25.1109 156.59 23.4381C155.932 21.9024 154.342 20.9699 152.724 20.7231C150.118 20.2569 147.403 21.6555 145.95 23.7946Z" fill="white"/>
</svg>
