<?xml version="1.0" encoding="utf-8"?>
<!-- Generator: Adobe Illustrator 25.4.1, SVG Export Plug-In . SVG Version: 6.00 Build 0)  -->
<svg version="1.1" id="Layer_1" xmlns="http://www.w3.org/2000/svg" xmlns:xlink="http://www.w3.org/1999/xlink" x="0px" y="0px"
	 viewBox="0 0 24 24" style="enable-background:new 0 0 24 24;" xml:space="preserve">
<style type="text/css">
	.st0{fill:#28E6DF;}
</style>
<path id="Color_Overlay" class="st0" d="M10.6,24c-0.7,0-1.2-0.6-1.2-1.2v-2.2c0-0.5-0.4-0.9-0.9-0.9c-0.2,0-0.4,0.1-0.6,0.3
	l-1.6,1.6C5.8,22,5,22,4.5,21.5l-2-2C2,19,2,18.2,2.5,17.7c0,0,0,0,0,0l1.6-1.6c0.3-0.3,0.3-0.9,0-1.2c-0.2-0.2-0.4-0.3-0.6-0.3H1.2
	c-0.7,0-1.2-0.6-1.2-1.2v-2.9c0-0.7,0.6-1.2,1.2-1.2h2.2c0.5,0,0.9-0.4,0.9-0.9c0-0.2-0.1-0.4-0.3-0.6L2.5,6.3C2,5.8,2,5,2.5,4.5
	c0,0,0,0,0,0l2-2C5,2,5.8,2,6.3,2.5l1.6,1.6c0.3,0.3,0.9,0.3,1.2,0c0.2-0.2,0.3-0.4,0.3-0.6V1.2C9.3,0.6,9.9,0,10.6,0h2.9
	c0.7,0,1.2,0.6,1.2,1.2v2.2c0,0.5,0.4,0.9,0.9,0.9c0.2,0,0.4-0.1,0.6-0.3l1.6-1.6C18.2,2,19,2,19.5,2.5l2,2C22,5,22,5.8,21.5,6.3
	c0,0,0,0,0,0l-1.6,1.6c-0.3,0.3-0.3,0.9,0,1.2c0.2,0.2,0.4,0.3,0.6,0.3h2.2c0.7,0,1.2,0.6,1.2,1.2v2.9c0,0.7-0.6,1.2-1.2,1.2h-2.2
	c-0.5,0-0.9,0.4-0.9,0.9c0,0.2,0.1,0.4,0.3,0.6l1.6,1.6c0.5,0.5,0.5,1.3,0,1.7c0,0,0,0,0,0l-2,2c-0.5,0.5-1.3,0.5-1.7,0l-1.6-1.6
	c-0.3-0.3-0.9-0.3-1.2,0c-0.2,0.2-0.3,0.4-0.3,0.6v2.2c0,0.7-0.6,1.2-1.2,1.2H10.6z M9.1,18.9c0.7,0.3,1.1,0.9,1.1,1.6v2.2
	c0,0.2,0.2,0.3,0.3,0.3h2.9c0.2,0,0.3-0.2,0.3-0.3v-2.2c0-1,0.8-1.8,1.8-1.8c0.5,0,0.9,0.2,1.2,0.5l1.6,1.6c0.1,0.1,0.4,0.1,0.5,0
	c0,0,0,0,0,0l2-2c0.1-0.1,0.1-0.4,0-0.5c0,0,0,0,0,0l-1.6-1.6c-0.7-0.7-0.7-1.8,0-2.5c0.3-0.3,0.8-0.5,1.2-0.5h2.2
	c0.2,0,0.3-0.2,0.3-0.3v-2.9c0-0.2-0.2-0.3-0.3-0.3h-2.2c-1,0-1.8-0.8-1.8-1.8c0-0.5,0.2-0.9,0.5-1.2l1.6-1.6c0.1-0.1,0.1-0.4,0-0.5
	c0,0,0,0,0,0l-2-2c-0.1-0.1-0.4-0.1-0.5,0c0,0,0,0,0,0l-1.6,1.6c-0.7,0.7-1.8,0.7-2.5,0c-0.3-0.3-0.5-0.8-0.5-1.2V1.2
	c0-0.2-0.2-0.3-0.3-0.3h-2.9c-0.2,0-0.3,0.2-0.3,0.3v2.2c0,1-0.8,1.8-1.8,1.8C8,5.2,7.6,5,7.2,4.7L5.6,3.1C5.5,3,5.3,3,5.2,3.1
	c0,0,0,0,0,0l-2,2C3,5.3,3,5.5,3.1,5.6c0,0,0,0,0,0l1.6,1.6c0.7,0.7,0.7,1.8,0,2.5c-0.3,0.3-0.8,0.5-1.2,0.5H1.2
	c-0.2,0-0.3,0.2-0.3,0.3v2.9c0,0.2,0.2,0.3,0.3,0.3h2.2c1,0,1.8,0.8,1.7,1.8c0,0.5-0.2,0.9-0.5,1.2l-1.6,1.6c-0.1,0.1-0.1,0.4,0,0.5
	c0,0,0,0,0,0l2,2c0.1,0.1,0.4,0.1,0.5,0c0,0,0,0,0,0l1.6-1.6c0.3-0.3,0.8-0.5,1.2-0.5C8.7,18.8,8.9,18.8,9.1,18.9L9.1,18.9z M8,12
	c0-2.2,1.8-4,4-4s4,1.8,4,4s-1.8,4-4,4S8,14.2,8,12z M8.9,12c0,1.7,1.4,3.1,3.1,3.1c1.7,0,3.1-1.4,3.1-3.1c0-1.7-1.4-3.1-3.1-3.1
	c0,0,0,0,0,0C10.3,8.9,8.9,10.3,8.9,12z"/>
</svg>
