<svg xmlns="http://www.w3.org/2000/svg" width="23.999" height="24" viewBox="0 0 23.999 24">
                    <g id="Search" transform="translate(-1467 -1118)">
                      <g id="Forma_1" data-name="Forma 1">
                        <g id="Forma_1-2" data-name="Forma 1" transform="translate(1467 1118)">
                          <path id="Forma_1-3" data-name="Forma 1" d="M23.705,22.295l-5.77-5.77a10.105,10.105,0,1,0-1.416,1.416l5.77,5.765a1,1,0,1,0,1.415-1.411Zm-13.591-4.08a8.1,8.1,0,1,1,8.106-8.1A8.111,8.111,0,0,1,10.114,18.215Z" fill="#fff"/>
                        </g>
                        <path id="Color_Overlay" data-name="Color Overlay" d="M1489.29,1141.706l-5.77-5.765a10.115,10.115,0,1,1,1.416-1.415l5.769,5.769a1,1,0,1,1-1.415,1.411Zm-20.282-13.592a8.106,8.106,0,1,0,8.106-8.106A8.111,8.111,0,0,0,1469.008,1128.114Z" fill="#fff"/>
                      </g>
                    </g>
                  </svg>