<svg width="47" height="47" viewBox="0 0 47 47" fill="none" xmlns="http://www.w3.org/2000/svg">
<g clip-path="url(#clip0_546_4765)">
<path d="M45.0366 23.5183C45.0366 35.4025 35.4025 45.0366 23.5183 45.0366C11.6341 45.0366 2 35.4025 2 23.5183C2 11.6341 11.6341 2 23.5183 2C35.4025 2 45.0366 11.6341 45.0366 23.5183Z" stroke="#28A8E9" stroke-width="4"/>
<path fill-rule="evenodd" clip-rule="evenodd" d="M10.6249 23.2622C17.4752 20.2583 22.0544 18.3168 24.3622 17.3643C30.8829 14.6535 32.2383 14.1773 33.1175 14.1406C33.3007 14.1406 33.7403 14.1773 34.0333 14.3971C34.2531 14.5802 34.3264 14.8367 34.363 15.0198C34.3996 15.203 34.4363 15.6059 34.3996 15.9356C34.0333 19.6356 32.5314 28.6839 31.7254 32.8234C31.3957 34.5818 30.7364 35.1679 30.1136 35.2412C28.7582 35.3511 27.6958 34.3253 26.377 33.4828C24.3256 32.1274 23.1533 31.2848 21.1385 29.966C18.8307 28.4275 20.3326 27.5849 21.6514 26.2295C21.9811 25.8631 28.0255 20.4048 28.1354 19.892C28.1354 19.8187 28.1721 19.5989 28.0255 19.489C27.879 19.3791 27.6958 19.4158 27.5493 19.4524C27.3295 19.489 24.0325 21.687 17.6218 26.0097C16.6693 26.6691 15.8268 26.9621 15.0575 26.9621C14.2149 26.9621 12.6031 26.4859 11.3942 26.0829C9.92887 25.6067 8.75662 25.3503 8.86652 24.5444C8.93979 24.1414 9.52591 23.7018 10.6249 23.2622Z" fill="#23A0DC"/>
</g>
<defs>
<clipPath id="clip0_546_4765">
<rect width="47" height="47" fill="white"/>
</clipPath>
</defs>
</svg>
