<svg width="47" height="48" viewBox="0 0 47 48" fill="none" xmlns="http://www.w3.org/2000/svg">
<path fill-rule="evenodd" clip-rule="evenodd" d="M40.0317 6.92013C35.6347 2.45371 29.7721 0 23.529 0C10.6736 0 0.201389 10.5837 0.190201 23.5759C0.190201 27.7371 1.26428 31.7851 3.30055 35.3696L0 47.5929L12.3743 44.3137C15.7867 46.1908 19.6243 47.1858 23.529 47.1858H23.5402C36.3955 47.1858 46.8678 36.6021 46.879 23.5986C46.8678 17.3003 44.4399 11.3753 40.0317 6.92013ZM23.529 43.1943C20.0382 43.1943 16.6258 42.2445 13.6497 40.4579L12.9449 40.0282L5.60534 41.9731L7.56329 34.7364L7.10457 33.9901C5.15781 30.8692 4.13967 27.2622 4.13967 23.5646C4.13967 12.7774 12.8442 3.98021 23.5402 3.98021C28.7204 3.98021 33.5873 6.02685 37.257 9.72437C40.9156 13.4332 42.9295 18.3519 42.9295 23.5873C42.9183 34.4084 34.2138 43.1943 23.529 43.1943ZM34.1691 28.5173C33.5873 28.2233 30.7231 26.7986 30.186 26.595C29.649 26.4028 29.2574 26.301 28.877 26.889C28.4854 27.477 27.3666 28.8113 27.0309 29.1957C26.6953 29.5915 26.3485 29.6367 25.7667 29.3427C25.1849 29.0487 23.3052 28.4268 21.0788 26.4141C19.3446 24.8537 18.181 22.9201 17.8342 22.3321C17.4985 21.7441 17.8006 21.4275 18.0915 21.1335C18.3488 20.8735 18.6733 20.4438 18.9642 20.1046C19.2551 19.7653 19.3558 19.5166 19.546 19.1208C19.7362 18.7251 19.6467 18.3858 19.5012 18.0919C19.3558 17.7979 18.1922 14.8919 17.6999 13.7159C17.23 12.5625 16.7489 12.7208 16.3909 12.7095C16.0552 12.6869 15.6636 12.6869 15.272 12.6869C14.8804 12.6869 14.2539 12.8339 13.7169 13.4219C13.1798 14.0099 11.6806 15.4346 11.6806 18.3406C11.6806 21.2466 13.7728 24.0395 14.0637 24.4353C14.3546 24.8311 18.1698 30.7788 24.0213 33.3342C25.4086 33.9448 26.4939 34.3067 27.3442 34.578C28.7427 35.0303 30.007 34.9625 31.014 34.8155C32.1328 34.6459 34.46 33.3908 34.9523 32.0113C35.4333 30.6318 35.4334 29.4558 35.2879 29.207C35.1425 28.9583 34.7509 28.8113 34.1691 28.5173Z" fill="#2BD449"/>
</svg>
